<?xml version="1.0" standalone="no"?>
<!DOCTYPE svg PUBLIC "-//W3C//DTD SVG 20010904//EN"
 "http://www.w3.org/TR/2001/REC-SVG-20010904/DTD/svg10.dtd">
<svg version="1.0" xmlns="http://www.w3.org/2000/svg"
 width="128.000000pt" height="128.000000pt" viewBox="0 0 128.000000 128.000000"
 preserveAspectRatio="xMidYMid meet">
<metadata>
Created by potrace 1.11, written by Peter Selinger 2001-2013
</metadata>
<g transform="translate(0.000000,128.000000) scale(0.100000,-0.100000)"
fill="#000000" stroke="none">
<path d="M574 1267 c-40 -13 -93 -65 -102 -101 -12 -47 -7 -233 7 -250 7 -8
11 -38 9 -72 l-3 -58 -50 -29 c-81 -47 -152 -106 -164 -135 -6 -15 -10 -43
-10 -62 3 -90 3 -89 -48 -92 l-48 -3 -3 -98 -3 -97 -57 0 c-92 0 -102 -12
-102 -124 0 -140 0 -140 183 -140 188 0 187 -1 187 131 0 118 -11 133 -100
133 l-60 0 0 75 0 75 163 0 164 0 11 -25 c6 -13 24 -31 40 -39 26 -14 31 -31
23 -78 0 -5 -27 -8 -58 -8 -32 0 -63 -4 -70 -8 -19 -12 -33 -60 -33 -116 0
-84 9 -115 39 -129 28 -14 259 -16 298 -3 51 17 59 217 10 248 -7 4 -38 8 -69
8 -32 0 -59 3 -59 8 -8 47 -3 64 23 78 16 8 34 26 40 39 l11 25 164 0 163 0 0
-75 0 -75 -65 0 c-87 0 -98 -16 -96 -138 2 -126 4 -127 190 -126 181 1 181 2
181 135 0 114 -12 129 -100 129 l-59 0 -3 98 -3 97 -51 5 -50 5 1 55 c2 70 -8
107 -37 132 -27 24 -162 114 -180 120 -16 6 -17 107 -2 133 13 22 16 58 15
176 -1 86 -22 129 -78 161 -35 21 -115 29 -159 15z"/>
</g>
</svg>
